<?xml version="1.0" encoding="utf-8"?>
<!-- Generator: Adobe Illustrator 28.1.0, SVG Export Plug-In . SVG Version: 6.00 Build 0)  -->
<svg version="1.1" id="Layer_1" xmlns="http://www.w3.org/2000/svg" xmlns:xlink="http://www.w3.org/1999/xlink" x="0px" y="0px"
	 viewBox="0 0 23.4 23.9" style="enable-background:new 0 0 23.4 23.9;" xml:space="preserve">
<g id="Group_34104" transform="translate(0 0)">
	<g>
		<g id="Group_34103" transform="translate(0 0)">
			<path id="Path_19358" d="M19.1,0c0.4,0.1,0.7,0.6,0.6,1c0,1.4,0,2.9,0,4.3c0,0.7-0.3,1-1,1c-0.4,0-0.8,0-1.3,0
				c-0.4,0-0.8-0.3-0.8-0.7c0,0,0-0.1,0-0.1c0-1.6,0-3.1,0-4.7c0-0.4,0.3-0.7,0.6-0.8H19.1z"/>
			<path id="Path_19359" d="M6.1,0c0.4,0.1,0.7,0.6,0.7,1c0,1.5,0,2.9,0,4.4c0,0.7-0.3,1-1,1c-0.4,0-0.8,0-1.2,0
				c-0.5,0.1-0.9-0.2-1-0.7c0-0.1,0-0.2,0-0.3c0-1.1,0-2.3,0-3.4c0-0.3,0-0.6,0-1C3.6,0.6,3.8,0.1,4.3,0H6.1z"/>
			<path id="Path_19360" d="M2.1,2.7v0.3c0,0.8,0,1.7,0,2.5C2,6.7,3,7.9,4.3,7.9c0.1,0,0.1,0,0.2,0c0.4,0,0.9,0,1.3,0
				C7.2,8,8.3,7,8.3,5.6c0-0.1,0-0.1,0-0.2c0-0.8,0-1.6,0-2.5V2.7h6.7v0.3c0,0.8,0,1.7,0,2.5c0,1.3,1,2.4,2.3,2.4c0,0,0,0,0,0
				c0.5,0,1.1,0,1.6,0c1.3,0,2.3-1.1,2.3-2.4c0-0.9,0-1.7,0-2.6V2.7c1.1,0,1.9,0.8,2.1,1.9c0,0.1,0,0.3,0,0.4c0,5.5,0,11.1,0,16.6
				c0,0.7-0.3,1.4-0.8,1.9c-0.4,0.3-0.9,0.5-1.5,0.5c-5.1,0-10.1,0-15.2,0c-1.2,0-2.4,0-3.7,0c-1,0-1.9-0.6-2.1-1.6
				C0,22.1,0,21.9,0,21.6C0,16.1,0,10.5,0,5c-0.1-1,0.6-1.9,1.6-2.2C1.7,2.7,1.9,2.7,2.1,2.7 M11.7,21.6h7.9c0.5,0.1,1-0.3,1.1-0.8
				c0-0.1,0-0.2,0-0.3v-8.5c0.1-0.5-0.3-1-0.8-1.1c-0.1,0-0.2,0-0.3,0H3.8c-0.5-0.1-1,0.3-1.1,0.8c0,0.1,0,0.2,0,0.3
				c0,2.8,0,5.6,0,8.4c-0.1,0.5,0.3,1,0.8,1.1c0.1,0,0.2,0,0.3,0L11.7,21.6"/>
			<path id="Path_19361" d="M11.7,12.7c0.3,0,0.6,0,0.9,0c0.3,0,0.6,0.2,0.6,0.5c0,0,0,0.1,0,0.1c0,0.6,0,1.2,0,1.8
				c0,0.3-0.2,0.6-0.5,0.6c0,0-0.1,0-0.1,0c-0.6,0-1.2,0-1.8,0c-0.3,0-0.6-0.2-0.6-0.5c0,0,0-0.1,0-0.1c0-0.6,0-1.2,0-1.7
				c0-0.3,0.2-0.6,0.5-0.6c0,0,0.1,0,0.1,0C11.1,12.7,11.4,12.7,11.7,12.7"/>
			<path id="Path_19362" d="M11.7,20.4c-0.3,0-0.6,0-0.9,0c-0.3,0-0.6-0.2-0.6-0.5c0,0,0-0.1,0-0.1c0-0.6,0-1.2,0-1.8
				c0-0.3,0.2-0.6,0.5-0.6c0,0,0.1,0,0.1,0c0.6,0,1.2,0,1.8,0c0.3,0,0.6,0.2,0.6,0.5c0,0,0,0.1,0,0.1c0,0.6,0,1.2,0,1.8
				c0,0.3-0.2,0.6-0.5,0.6c0,0,0,0-0.1,0L11.7,20.4"/>
			<path id="Path_19363" d="M5.5,14.1c0-0.3,0-0.6,0-0.9c0-0.3,0.2-0.6,0.5-0.6c0,0,0.1,0,0.1,0c0.6,0,1.2,0,1.8,0
				c0.3,0,0.5,0.2,0.6,0.5c0,0,0,0.1,0,0.1c0,0.6,0,1.3,0,1.9c0,0.3-0.2,0.5-0.5,0.5c0,0-0.1,0-0.1,0c-0.6,0-1.2,0-1.8,0
				c-0.4,0-0.6-0.2-0.6-0.6C5.5,14.7,5.5,14.4,5.5,14.1"/>
			<path id="Path_19364" d="M17.9,14.1c0,0.3,0,0.6,0,0.9c0,0.3-0.2,0.6-0.5,0.6c0,0-0.1,0-0.1,0c-0.6,0-1.2,0-1.8,0
				c-0.3,0-0.6-0.2-0.6-0.5c0,0,0-0.1,0-0.1c0-0.6,0-1.2,0-1.8c0-0.3,0.2-0.6,0.5-0.6c0,0,0.1,0,0.1,0c0.6,0,1.2,0,1.8,0
				c0.3,0,0.6,0.2,0.6,0.5c0,0,0,0.1,0,0.1V14.1"/>
			<path id="Path_19365" d="M5.5,18.9c0-0.3,0-0.6,0-0.9c0-0.3,0.2-0.6,0.5-0.6c0,0,0.1,0,0.1,0c0.6,0,1.2,0,1.8,0
				c0.3,0,0.5,0.2,0.6,0.5c0,0,0,0,0,0.1c0,0.6,0,1.2,0,1.9c0,0.3-0.2,0.5-0.5,0.6c0,0-0.1,0-0.1,0c-0.6,0-1.2,0-1.8,0
				c-0.3,0-0.6-0.2-0.6-0.5c0,0,0-0.1,0-0.1C5.5,19.5,5.5,19.2,5.5,18.9"/>
			<path id="Path_19366" d="M17.9,18.9c0,0.3,0,0.6,0,0.9c0,0.3-0.2,0.6-0.5,0.6c0,0,0,0-0.1,0c-0.6,0-1.2,0-1.8,0
				c-0.3,0-0.5-0.2-0.6-0.5c0,0,0,0,0-0.1c0-0.6,0-1.3,0-1.9c0-0.3,0.2-0.5,0.5-0.5c0,0,0,0,0.1,0c0.6,0,1.2,0,1.8,0
				c0.3,0,0.6,0.2,0.6,0.5c0,0,0,0.1,0,0.1C17.9,18.3,17.9,18.6,17.9,18.9"/>
		</g>
	</g>
</g>
</svg>
