<svg xmlns="http://www.w3.org/2000/svg" width="21" height="21" viewBox="0 0 21 21">
  <g id="stroke_dropdown" transform="translate(-0.084 0.403)">
    <g id="Group_8957" data-name="Group 8957" transform="translate(0.084 -0.403)">
      <path id="Path_4530" data-name="Path 4530" d="M10.5,21A10.5,10.5,0,1,1,21,10.5,10.512,10.512,0,0,1,10.5,21Zm0-19.25a8.75,8.75,0,1,0,8.75,8.75A8.76,8.76,0,0,0,10.5,1.75Z" transform="translate(0 0)" fill="#555"/>
    </g>
    <g id="Group_8958" data-name="Group 8958" transform="translate(5.272 7.378)">
      <path id="Path_4531" data-name="Path 4531" d="M5.511,6.613a1.1,1.1,0,0,1-.779-.323L.323,1.882A1.1,1.1,0,0,1,1.882.323l3.63,3.63L9.141.323A1.1,1.1,0,0,1,10.7,1.882L6.291,6.291A1.1,1.1,0,0,1,5.511,6.613Z" transform="translate(0 0)" fill="#555"/>
    </g>
  </g>
</svg>
