<?xml version="1.0" encoding="utf-8"?>
<!-- Generator: Adobe Illustrator 28.1.0, SVG Export Plug-In . SVG Version: 6.00 Build 0)  -->
<svg version="1.1" id="Layer_1" xmlns="http://www.w3.org/2000/svg" xmlns:xlink="http://www.w3.org/1999/xlink" x="0px" y="0px"
	 viewBox="0 0 23.4 23.4" style="enable-background:new 0 0 23.4 23.4;" xml:space="preserve">
<g id="Group_34107" transform="translate(0 0)">
	<g>
		<g id="Group_34106" transform="translate(0 0)">
			<path id="Path_19367" d="M12.4,23.4H11c-0.4,0-0.8-0.1-1.2-0.1c-2.4-0.4-4.6-1.5-6.3-3.2c-2.6-2.5-3.8-6-3.5-9.5
				C0.3,8.1,1.3,5.8,2.9,4C5,1.6,8,0.1,11.2,0c2.3-0.1,4.5,0.4,6.5,1.6c3,1.7,5,4.7,5.6,8c0.1,0.4,0.1,0.9,0.2,1.3v1.4
				c0,0.2,0,0.3-0.1,0.5c-0.2,2.5-1.3,4.8-2.9,6.6c-1.7,2-4.1,3.3-6.7,3.7C13.3,23.3,12.8,23.3,12.4,23.4 M11.7,1.8
				c-5.5,0-9.9,4.4-9.9,9.9c0,5.5,4.4,9.9,9.9,9.9c5.5,0,9.9-4.4,9.9-9.9c0,0,0,0,0,0C21.6,6.2,17.1,1.8,11.7,1.8"/>
			<path id="Path_19368" d="M10.8,9.1c0-0.9,0-1.8,0-2.7c0-0.5,0.4-0.9,0.9-0.9c0.1,0,0.3,0,0.4,0.1c0.4,0.2,0.6,0.5,0.6,0.9
				c0,1.5,0,3,0,4.5c0,0.2,0.1,0.5,0.3,0.6c1,0.7,1.9,1.4,2.9,2.2c0.4,0.3,0.6,0.8,0.3,1.2c-0.3,0.4-0.8,0.6-1.2,0.3
				c0,0-0.1,0-0.1-0.1c-0.3-0.2-0.7-0.5-1-0.7c-0.8-0.6-1.7-1.3-2.5-1.9c-0.4-0.2-0.6-0.6-0.5-1.1C10.8,10.7,10.8,9.9,10.8,9.1"/>
		</g>
	</g>
</g>
</svg>
